<?xml version="1.0" standalone="no"?>
<!DOCTYPE svg PUBLIC "-//W3C//DTD SVG 20010904//EN"
 "http://www.w3.org/TR/2001/REC-SVG-20010904/DTD/svg10.dtd">
<svg version="1.0" xmlns="http://www.w3.org/2000/svg"
 width="204.000000pt" height="192.000000pt" viewBox="0 0 204.000000 192.000000"
 preserveAspectRatio="xMidYMid meet">
<metadata>
Created by potrace 1.10, written by Peter Selinger 2001-2011
</metadata>
<g transform="translate(0.000000,192.000000) scale(0.100000,-0.100000)"
fill="#000000" stroke="none">
<path d="M905 1685 c-153 -34 -233 -101 -280 -234 -24 -69 -17 -78 73 -85 42
-4 91 -10 109 -13 31 -5 33 -3 57 50 28 64 54 84 118 93 105 15 158 -34 158
-147 l0 -66 -102 -12 c-259 -31 -363 -85 -427 -220 -22 -47 -26 -70 -26 -146
0 -78 4 -97 28 -147 54 -110 145 -155 292 -146 96 6 170 38 235 100 23 22 42
38 44 37 1 -2 12 -21 25 -41 22 -37 84 -98 100 -98 16 0 181 152 181 167 0 8
-12 29 -27 47 -50 59 -53 79 -53 321 0 227 -11 348 -35 395 -65 124 -274 189
-470 145z m277 -44 c66 -20 131 -72 158 -126 24 -49 25 -57 30 -336 l5 -286
33 -53 c18 -29 30 -60 27 -69 -3 -9 -33 -38 -67 -64 l-61 -48 -63 61 c-72 69
-68 69 -157 -1 -58 -46 -129 -69 -211 -69 -83 0 -131 15 -176 56 -58 53 -83
121 -78 214 7 116 63 206 159 255 38 20 181 51 276 60 99 10 123 31 123 113 0
80 -31 138 -91 170 -86 46 -205 9 -250 -79 l-21 -42 -74 5 c-41 3 -77 8 -81
11 -14 14 20 91 59 132 73 81 180 116 328 110 52 -2 112 -8 132 -14z"/>
<path d="M1007 1159 c-130 -31 -195 -116 -184 -242 17 -189 235 -210 323 -31
23 46 29 75 32 146 4 82 3 91 -18 114 -25 26 -78 31 -153 13z m134 -116 c-3
-145 -58 -229 -157 -241 -88 -10 -146 75 -123 179 21 90 84 135 208 148 36 4
68 6 70 4 2 -1 3 -42 2 -90z"/>
<path d="M1543 600 c-23 -5 -55 -16 -72 -25 -33 -17 -43 -40 -13 -31 44 13
129 17 155 7 34 -13 35 -38 2 -128 -13 -37 -22 -70 -19 -73 3 -3 18 9 34 26
53 60 90 204 56 217 -30 12 -103 15 -143 7z"/>
<path d="M345 591 c-15 -25 147 -166 272 -237 43 -24 114 -56 158 -71 73 -24
95 -27 240 -27 141 -1 169 2 235 22 143 45 330 160 330 202 0 25 -20 25 -62 1
-49 -29 -192 -76 -288 -96 -100 -21 -274 -24 -370 -6 -152 29 -355 112 -455
185 -45 34 -53 37 -60 27z m402 -213 c111 -30 128 -32 283 -32 177 0 276 16
413 70 78 31 56 10 -48 -46 -91 -49 -146 -67 -260 -85 -151 -24 -340 6 -465
73 -79 43 -160 95 -160 103 0 3 27 -7 59 -22 33 -16 112 -43 178 -61z"/>
</g>
</svg>
